<svg viewBox="0 0 60 60" xmlns="http://www.w3.org/2000/svg" xmlns:xlink="http://www.w3.org/1999/xlink" width="60.000000" height="60.000000" fill="none" customFrame="#000000">
	<g id="icon">
		<rect id="Rectangle" width="60.000000" height="60.000000" x="0.000000" y="0.000000" rx="30.000000" opacity="0" fill="rgb(245,245,245)" />
		<rect id="Rectangle" width="60.000000" height="60.000000" x="0.000000" y="0.000000" rx="30.000000" opacity="0" stroke="rgb(150.96,150.96,150.96)" stroke-opacity="0" stroke-width="0" />
		<g id="shield">
			<path id="Path" d="M41.2085 12.0303L21.2475 6.04197C21.0606 5.98601 20.8614 5.98601 20.6746 6.04197L0.713585 12.0303C0.290848 12.1565 0.00107013 12.5453 0.000976562 12.9864L0.000976562 34.9436C0.000976562 43.7684 13.4587 51.619 20.6646 53.8626C20.8596 53.9239 21.0686 53.9239 21.2635 53.8626C28.4614 51.6189 41.9191 43.7683 41.9191 34.9436L41.9191 12.9863C41.9192 12.5457 41.6304 12.1571 41.2085 12.0303Z" fill="rgb(255,0,67)" fill-rule="nonzero" />
			<path id="Path" d="M18.9643 37.9376C18.6994 37.9381 18.4452 37.8333 18.2577 37.6462L10.2733 29.6618C9.89043 29.2653 9.90137 28.6335 10.2978 28.2505C10.6846 27.877 11.2978 27.877 11.6845 28.2505L18.9643 35.5283L32.2304 22.2622C32.6133 21.8658 33.2451 21.8547 33.6416 22.2377C34.0381 22.6207 34.049 23.2524 33.6661 23.649C33.6581 23.6573 33.65 23.6654 33.6416 23.6735L19.669 37.6462C19.4819 37.8327 19.2285 37.9375 18.9643 37.9376Z" fill="rgb(250,250,250)" fill-rule="nonzero" />
		</g>
	</g>
</svg>
