<svg viewBox="0 0 60 60" xmlns="http://www.w3.org/2000/svg" xmlns:xlink="http://www.w3.org/1999/xlink" width="60.000000" height="60.000000" fill="none" customFrame="#000000">
	<g id="icon">
		<rect id="Rectangle" width="60.000000" height="60.000000" x="0.000000" y="0.000000" rx="30.000000" opacity="0" fill="rgb(245,245,245)" />
		<rect id="Rectangle" width="60.000000" height="60.000000" x="0.000000" y="0.000000" rx="30.000000" opacity="0" stroke="rgb(150.96,150.96,150.96)" stroke-opacity="0" stroke-width="0" />
		<g id="brand">
			<path id="Shape" d="M22.8722 16.468C21.9428 16.8373 20.9775 17.0307 19.9735 17.004C19.7828 17.0013 19.7095 16.9507 19.6988 16.7493C19.5428 14.8493 20.0522 13.1107 20.9682 11.4733C22.5335 8.67733 24.9148 6.95067 28.0095 6.192C28.3908 6.096 28.7882 6.06533 29.2242 6C29.2362 6.32 29.2548 6.596 29.2602 6.872C29.3268 10.3013 27.1108 14.7853 22.8722 16.468ZM39.0602 40.936C38.9322 41.2973 38.8082 41.6853 38.6655 42.0667C37.4842 45.2653 35.6908 48.1053 33.5148 50.708C33.0948 51.2147 32.6055 51.6733 32.1002 52.0987C31.1015 52.944 29.9522 53.4547 28.6228 53.5013C27.6242 53.5333 26.6655 53.352 25.7415 52.976C25.0722 52.7027 24.4135 52.3973 23.7348 52.1507C21.5322 51.3507 19.3415 51.456 17.1748 52.312C16.3935 52.6213 15.6228 52.9627 14.8268 53.2307C13.9042 53.54 12.9468 53.6653 11.9722 53.4813C11.1215 53.3227 10.3775 52.9267 9.68682 52.416C8.82949 51.7813 8.10949 51.008 7.43615 50.1893C4.24815 46.3013 2.10815 41.9053 1.07482 36.9813C0.629486 34.864 0.416152 32.7293 0.546819 30.5653C0.700152 27.9707 1.30282 25.5 2.68949 23.2733C4.42949 20.4747 6.88415 18.6413 10.1135 17.8853C12.0562 17.428 13.9455 17.6147 15.7975 18.328C16.7722 18.7013 17.7495 19.0707 18.7282 19.4373C19.6295 19.776 20.5268 19.776 21.4295 19.4307C22.4282 19.0493 23.4282 18.6693 24.4308 18.2973C25.4588 17.9227 26.5042 17.616 27.5948 17.5293C29.2268 17.3973 30.8188 17.6093 32.3682 18.128C34.5642 18.8627 36.3508 20.1627 37.7002 22.056C37.7362 22.108 37.7761 22.1653 37.8028 22.2067C34.4002 24.5787 32.4628 27.712 32.7442 31.9547C33.0282 36.2 35.3135 39.072 39.0602 40.936Z" fill="rgb(255,0,67)" fill-rule="evenodd" />
		</g>
	</g>
</svg>
