<svg viewBox="0 0 102 60" xmlns="http://www.w3.org/2000/svg" xmlns:xlink="http://www.w3.org/1999/xlink" width="102.000000" height="60.000000" fill="none" customFrame="#000000">
	<g id="icon">
		<rect id="Rectangle" width="60.000000" height="60.000000" x="0.000000" y="0.000000" rx="30.000000" opacity="0" fill="rgb(245,245,245)" />
		<rect id="Rectangle" width="60.000000" height="60.000000" x="0.000000" y="0.000000" rx="30.000000" opacity="0" stroke="rgb(150.96,150.96,150.96)" stroke-opacity="0" stroke-width="0" />
		<g id="Group 2">
			<g id="finder">
				<path id="Path" d="M43 15.7258L43 45.2883C43 46.0408 42.4088 46.6321 41.6562 46.6321L24.3756 46.6321C23.865 41.8483 24.3219 34.404 25.5312 31.8508C25.5312 31.8508 19.995 31.8508 17.4688 31.8508C17.4688 26.234 20.0756 19.0852 22.7094 14.3821L41.6562 14.3821C42.4088 14.3821 43 14.9733 43 15.7258Z" fill="rgb(255,231,237)" fill-rule="nonzero" />
				<path id="Path" d="M24.3756 46.6321L1.34375 46.6321C0.59125 46.6321 0 46.0408 0 45.2883L0 15.7258C0 14.9733 0.59125 14.3821 1.34375 14.3821L22.7094 14.3821C20.0756 19.0852 17.4688 26.234 17.4688 31.8508C19.995 31.8508 25.5312 31.8508 25.5312 31.8508C24.3219 34.404 23.865 41.8483 24.3756 46.6321Z" fill="rgb(255,231,237)" fill-rule="nonzero" />
				<g id="Group">
					<path id="Path" d="M25.4963 51.9936C25.1657 51.9936 24.8379 51.87 24.5799 51.612C22.3331 49.3652 22.4299 38.4889 23.693 33.1945L17.4688 33.1945C16.727 33.1945 16.125 32.5925 16.125 31.8508C16.125 23.7318 21.1748 12.8071 24.5799 9.39939C25.1039 8.87533 25.9559 8.87533 26.4799 9.39939C27.004 9.92346 27.004 10.7754 26.4799 11.2995C23.9429 13.8391 19.3822 23.1137 18.8609 30.507L25.5312 30.507C25.9908 30.507 26.4181 30.7408 26.6654 31.1278C26.9126 31.5175 26.9449 32.004 26.7487 32.4178C25.1012 35.9411 25.1658 48.2526 26.4826 49.7146C26.9718 50.2548 26.961 51.1121 26.4316 51.612C26.1682 51.8646 25.8296 51.9936 25.4963 51.9936Z" fill="rgb(255,0,67)" fill-rule="nonzero" />
					<path id="Path" d="M21.4999 41.2571C18.9414 41.2571 14.2947 40.5288 8.92781 38.4809C8.23443 38.2175 7.88774 37.4408 8.15112 36.7475C8.41449 36.0514 9.19118 35.6993 9.88725 35.9708C14.9182 37.8896 19.2881 38.5696 21.4999 38.5696C23.7117 38.5696 28.0816 37.8896 33.1153 35.9708C33.8033 35.702 34.5854 36.0487 34.8487 36.7475C35.1148 37.4408 34.7681 38.2175 34.0721 38.4809C28.7051 40.5288 24.0584 41.2571 21.4999 41.2571Z" fill="rgb(255,0,67)" fill-rule="nonzero" />
					<path id="Path" d="M12.0938 25.1321C11.352 25.1321 10.75 24.5301 10.75 23.7883L10.75 21.1008C10.75 20.3591 11.352 19.7571 12.0938 19.7571C12.8355 19.7571 13.4375 20.3591 13.4375 21.1008L13.4375 23.7883C13.4375 24.5301 12.8355 25.1321 12.0938 25.1321Z" fill="rgb(255,0,67)" fill-rule="nonzero" />
					<path id="Path" d="M28.2188 25.1321C27.477 25.1321 26.875 24.5301 26.875 23.7883L26.875 21.1008C26.875 20.3591 27.477 19.7571 28.2188 19.7571C28.9605 19.7571 29.5625 20.3591 29.5625 21.1008L29.5625 23.7883C29.5625 24.5301 28.9605 25.1321 28.2188 25.1321Z" fill="rgb(255,0,67)" fill-rule="nonzero" />
				</g>
			</g>
			<g id="windows">
				<path id="Path" d="M78.5532 28.4285L78.5532 13.6262L60.9165 15.8308L60.9165 28.4285L78.5532 28.4285Z" fill="rgb(255,0,67)" fill-rule="nonzero" />
				<path id="Path" d="M81.0732 28.4285L101.229 28.4285L101.229 10.7917L81.0732 13.3113L81.0732 28.4285Z" fill="rgb(255,0,67)" fill-rule="nonzero" />
				<path id="Path" d="M81.0732 30.948L81.0732 46.0652L101.229 48.5847L101.229 30.948L81.0732 30.948Z" fill="rgb(255,0,67)" fill-rule="nonzero" />
				<path id="Path" d="M78.5532 30.948L60.9165 30.948L60.9165 43.5457L78.5532 45.7502L78.5532 30.948Z" fill="rgb(255,0,67)" fill-rule="nonzero" />
			</g>
		</g>
	</g>
</svg>
